<svg xmlns="http://www.w3.org/2000/svg" viewBox="0 0 190.46 55.04"><defs><style>.cls-1,.cls-2{fill:#1d1d1b;}.cls-2{opacity:0.8;}</style></defs><title>thiago-logo</title><g id="Camada_2" data-name="Camada 2"><g id="Camada_1-2" data-name="Camada 1"><path class="cls-1" d="M44.48,20.57c-.3.46-.62.9-.86,1.31q-1,1.79-1.84,3.67a35.35,35.35,0,0,0-2.93,9.63h-.53c.5.25.46,1,.23,1.5a2.76,2.76,0,0,0-.48,1.58c.06.3.26.59.22.9-.09.65-.92.14-1.21-.05a2.25,2.25,0,0,1-1-1.66c-.66-3.61.46-7.58,1.57-11,1.17-3.6,2.72-7.05,4.13-10.56a.82.82,0,0,1,.1-.17c.36-.63,2.17.38,2.49.66C45.7,17.58,45.34,19.25,44.48,20.57Z"/><path class="cls-1" d="M64.76,22.12a1.89,1.89,0,0,0-.44-.54,4.43,4.43,0,0,0-1.5-1.09c-.74-.24-1.27.34-2,.19a.54.54,0,0,0,.09-.14c-1.74-1.46-3.42-3.15-5.28-4.47A4,4,0,0,0,54,15.37c-.63-.11-2.71,3-3.09,3.48A36.83,36.83,0,0,0,48,23.34c-1.77,3.18-3.9,6.89-3.67,10.67.06,1.05,1.31,4.29,2.68,4.21s2.24-2.21,2.93-3.1c1-1.29,2-2.61,3-3.91a54,54,0,0,1,6.61-7.45c-.34.75-.7,1.48-1.07,2.22s-.64,1.42-.92,2.16-.55,1.49-.79,2.25a6.81,6.81,0,0,0,.49,6.34,3.13,3.13,0,0,0,1.17,1.16,1.5,1.5,0,0,0,1.58-.09,2.33,2.33,0,0,1-1.12-1.89,6,6,0,0,1,.36-2.25,30.93,30.93,0,0,1,5-9.69c.39-.51.83-1.14.62-1.75Zm-5.1.3-1.36,1.4.52.11a2.17,2.17,0,0,0-.91.31,4.33,4.33,0,0,0-.93.88l-3.53,4c-.21.24-.53.49-.79.33L55,26.73c.23-.26,1.56-2.22,1.9-2.22q-2.81,2.87-5.44,5.92-1.16,1.35-2.26,2.75c-.3.39-2.51,2.8-2.35,3.19a1.34,1.34,0,0,1-.1-.33c0-3,1.76-6.34,3.23-9a35.33,35.33,0,0,1,2.92-4.39c.94-1.21,2-3.06,3.45-3.72a.72.72,0,0,1,.75.06,12.81,12.81,0,0,0,3.4,2.07l-2,1.78c.76-.57,1.56-1.11,2.27-1.72A11.23,11.23,0,0,1,59.66,22.42Z"/><path class="cls-1" d="M24.72,28.34c-.28.35-.57.69-.84,1-.8,1-1.51,2.13-2.21,3.23l-1.77,2.76a4,4,0,0,0-.65,1.39c-.36,2-2.09,1.39-3,.14s-.85-3.18-.58-4.81c1-5.73,3.47-10.77,6.43-15.7.37-.64.76-1.28,1.16-1.93s.79-1.29,1.19-1.93l1-1.6a7.59,7.59,0,0,0-1.72-.14c-.76,0-1.53,0-2.29,0-.31,0-.63,0-1,0l-1.06.12a2.55,2.55,0,0,1-.16.48c-.88,2.24-1.9,4.43-2.95,6.6a63.38,63.38,0,0,0-3,6.23c-.22.63-.39,1.29-.67,1.9-.14.3-.3.58-.41.89A6.88,6.88,0,0,0,12,28.34a23.21,23.21,0,0,1-1.11,3.89c-.39,1.2-.52,2.49-1,3.68a10,10,0,0,0-.68,2.15,11,11,0,0,1-.12,2.23A1.26,1.26,0,0,0,9,41a1.48,1.48,0,0,0,.33.58l.12.11a1.06,1.06,0,0,1,.16.18,3,3,0,0,1-.77,0,2,2,0,0,1-.73-.54,4.17,4.17,0,0,1-1-2.07,10.06,10.06,0,0,1,0-3,50.32,50.32,0,0,1,1.73-8.69c.78-2.76,1.74-5.48,2.77-8.16.93-2.43,2.48-5.05,2.9-7.62,0-.24,0-.36,0-.36l-.51,0c-.36,0-.68-.19-1.08-.19a12.79,12.79,0,0,0-2,.31l-3.3.51-2.69.42-3.57.56c-1.64.26-1.6-.66-.35-1.49a6.18,6.18,0,0,1,1.58-.74l1.24-.41a69.25,69.25,0,0,1,11-2.38c.42-.07.86-.17,1.3-.28a.59.59,0,0,0,.46-.39L18.7,2.29c.16-.31.31-.62.46-.94.43-.86.49-1.4,1.54-1.34a3.64,3.64,0,0,1,2.48,1.23,1.5,1.5,0,0,1,.44,1.25,1.37,1.37,0,0,0-.07.34,3.28,3.28,0,0,0,.1.38c.14.89-1.61,2.61-2.09,3.31a.43.43,0,0,0-.08.17.3.3,0,0,0,.22.3.89.89,0,0,0,.4,0,15.14,15.14,0,0,1,3-.12,15.55,15.55,0,0,0,2.6.3c.21-.37.42-.72.6-1.08a.66.66,0,0,1,.41-.32.71.71,0,0,1,.42,0,.5.5,0,0,1,0,.32,1.13,1.13,0,0,1,1.26.24c.35.3.61.69,1,1a3.8,3.8,0,0,1,.43.32c1.74,1.74-1.62,4.77-2.52,6q-2.42,3.28-4.69,6.66a32.59,32.59,0,0,0-3.42,6.38,2.06,2.06,0,0,1-.88,1.24l.34,0a32.17,32.17,0,0,0-1.91,5.83,2.17,2.17,0,0,1-.08.3,2.17,2.17,0,0,0-.08.3.8.8,0,0,0-.07.34,1,1,0,0,1-.06.35v0c.08-.13.17-.27.24-.41a2.71,2.71,0,0,1,.28-.41q.3-.43.63-.84t.69-.81a.65.65,0,0,1,.15-.1c.06,0,.09,0,.09-.1A7.61,7.61,0,0,1,21.12,31a5.38,5.38,0,0,1,.94-1.15l.64-.66a2.53,2.53,0,0,0,.48-.69,3.11,3.11,0,0,1,.43-.81c.18-.23.36-.46.56-.68a2.92,2.92,0,0,1,.53-.46.73.73,0,0,0,.3-.66.57.57,0,0,0,.39-.11.9.9,0,0,0,.21-.27,2.64,2.64,0,0,0,.15-.33,1,1,0,0,1,.16-.31l.94-1.14c.33-.38.65-.76,1-1.13s.49-.48.75-.71a3.71,3.71,0,0,0,.65-.74,1.91,1.91,0,0,1,.59-.55,4.21,4.21,0,0,1,.71-.31q-1.86,2-3.56,4c-1,1.26-2.75,2.86-3.17,4.47l2.55-2.93A11.31,11.31,0,0,1,24.72,28.34Z"/><path class="cls-1" d="M38.4,18.73c0,.8-.75,1.27-1.23,1.82a26.47,26.47,0,0,0-1.7,2.39q-1.7,2.51-3.16,5.17a23.75,23.75,0,0,1-2,3.67l.44-.12a3,3,0,0,0-1.12,1.55.66.66,0,0,0,.55-.18,1.68,1.68,0,0,1-1.1.65l.36.24a14.17,14.17,0,0,0-1.3,3.47l.8-.78a23.14,23.14,0,0,0-1.44,5.79l-.16,1a1.19,1.19,0,0,0,0,.37.63.63,0,0,0,1.08.23c-.18.27.15.71-.29,1S27.52,45,27,44.93c-1-.12-1.77-1.31-2.06-2.21a7.46,7.46,0,0,1-.27-2.59c.15-3.93,1.62-7.73,3.08-11.34a84.49,84.49,0,0,1,5.32-10.86,10.25,10.25,0,0,1-2.34,1.92,37.92,37.92,0,0,0,2.89-3c.39-.58.89-1.22,1.59-1.23a2.22,2.22,0,0,1,1.46.82l1,1a2.15,2.15,0,0,1,.63.86A1.12,1.12,0,0,1,38.4,18.73Z"/><path class="cls-1" d="M29.48,34.05l.33-.33a.82.82,0,0,1-.07.53c-.06.09-.2.11-.39.07l.06-.14A.54.54,0,0,0,29.48,34.05Z"/><path class="cls-1" d="M44.94,13.07q0-.1,0-.22a3.61,3.61,0,0,1,.59-1.92L47.31,7.5c.62-1.18.68-1.59,2-1.59a.41.41,0,0,0-.25.34,1.51,1.51,0,0,1,1.17.17c.33.27.37.76.53,1.16a3.66,3.66,0,0,1,.4,1,1.86,1.86,0,0,1-.69,1.31L47.81,12.7C47,13.52,45.23,15.14,44.94,13.07Z"/><path class="cls-1" d="M86.37,24.13c0,2.62-1.1,5.5-1.83,8-.4,1.36-1.3,2.53-1.71,3.76A23,23,0,0,1,81.19,40a1.41,1.41,0,0,1-.55.87l.41,0q-.84,1.35-1.8,2.62a3.76,3.76,0,0,0-.63,1c-.19.57-.12,1.28-.58,1.67-.21.18-.5.26-.67.48s0,.66.26.55c-.73.7-2.11,1.75-2.3,2.77-.08,0-.5,0-.54-.06.26.53-.15,1.13-.56,1.55-1.5,1.56-3.56,3.37-5.79,3.53a8,8,0,0,1-3.23-.53,9.6,9.6,0,0,1-3.8-2.33,6,6,0,0,1-1.74-4c0,.56,1.5,2.18,1.86,2.65.64.84,1.5,1.8,2.67,1.68A10.27,10.27,0,0,0,69,50.2a20.32,20.32,0,0,0,4.11-4.69,52.52,52.52,0,0,0,8.36-20.45c.08-.53.18-1.06.29-1.59a.48.48,0,0,0,0-.29,1.38,1.38,0,0,1,0-.3.19.19,0,0,0-.13-.06c-.63,0-2.13,2.21-2.5,2.64q-1.65,1.89-3.26,3.81C74.55,30.83,73.27,32.41,72,34c-1,1.21-2.2,3.6-3.74,4.09-.42.14-.87.19-1.29.36a4,4,0,0,1-.82.32c-1.56.26-2.83-2-3-3.26a6.88,6.88,0,0,1,.78-3.92c1.25-2.6,3-5.05,4.43-7.53.63-1.07,1.27-2.15,2-3.15a19.51,19.51,0,0,1,2.22-2.55c1-1,2.27-2.28,3.69-2.65a3.33,3.33,0,0,1,3.31,1.4c.57.64,2,2.18,1.9,3.1s-1.12.58-1.24-.17c-.22-1.43-.58-.9-1.44-.22A42.23,42.23,0,0,0,74,23.73a33.4,33.4,0,0,0-4.51,5.87c-.71,1.18-1.49,2.32-2.15,3.53a19.27,19.27,0,0,0-1.24,3.21c.37,0,1,.23,1.25-.09s.74-.83,1.1-1.25l1.11-1.29,1-1.28,1-1.29,1-1.17,1-1.17a9.46,9.46,0,0,0,.81-1,8.46,8.46,0,0,1,.84-1c.57-.64,1.15-1.27,1.73-1.9s1.18-1.23,1.8-1.82,1-1,1.46-1.39,1-.89,1.5-1.35a.34.34,0,0,0,.1-.16.75.75,0,0,1,.1-.2,2.08,2.08,0,0,0,.12-.3c.24-.67,2,.1,2.31.31A4.47,4.47,0,0,1,86.37,24.13Z"/><path class="cls-1" d="M99.73,21.79c0,.16,0,.3,0,.43a2.68,2.68,0,0,0,0,.4h.1a2.7,2.7,0,0,0,0-.4,2.56,2.56,0,0,1,0-.39C99.8,21.83,99.75,21.82,99.73,21.79ZM98,27.45c-.22.34-.45.68-.69,1a1.86,1.86,0,0,0,.41-.38,4.34,4.34,0,0,0,.46-.62,7.17,7.17,0,0,0,.35-.64,1.44,1.44,0,0,0,.13-.43Zm-.74,1.25,0,0-.55.66-.54.66a.06.06,0,0,0,.07.07,3.21,3.21,0,0,1,.38-.33,2.16,2.16,0,0,0,.37-.37,1,1,0,0,0,.22-.31l.15-.35Zm2.45-6.91c0,.16,0,.3,0,.43a2.68,2.68,0,0,0,0,.4h.1a2.7,2.7,0,0,0,0-.4,2.56,2.56,0,0,1,0-.39C99.8,21.83,99.75,21.82,99.73,21.79Zm-2.4,6.69a1.86,1.86,0,0,0,.41-.38,4.34,4.34,0,0,0,.46-.62,7.17,7.17,0,0,0,.35-.64,1.44,1.44,0,0,0,.13-.43l-.66,1C97.8,27.79,97.57,28.13,97.33,28.48Zm-.1.2-.55.66-.54.66a.06.06,0,0,0,.07.07,3.21,3.21,0,0,1,.38-.33,2.16,2.16,0,0,0,.37-.37,1,1,0,0,0,.22-.31l.15-.35h0Zm2.5-6.89c0,.16,0,.3,0,.43a2.68,2.68,0,0,0,0,.4h.1a2.7,2.7,0,0,0,0-.4,2.56,2.56,0,0,1,0-.39C99.8,21.83,99.75,21.82,99.73,21.79Zm-2.4,6.69a1.86,1.86,0,0,0,.41-.38,4.34,4.34,0,0,0,.46-.62,7.17,7.17,0,0,0,.35-.64,1.44,1.44,0,0,0,.13-.43l-.66,1C97.8,27.79,97.57,28.13,97.33,28.48Zm-.1.2-.55.66-.54.66a.06.06,0,0,0,.07.07,3.21,3.21,0,0,1,.38-.33,2.16,2.16,0,0,0,.37-.37,1,1,0,0,0,.22-.31l.15-.35h0Z"/><path class="cls-1" d="M101.75,21.87a4.75,4.75,0,0,0-1.5-3.18c-.54-.46-1.2-.75-1.76-1.18a.54.54,0,0,1-.25-.36c0-.16.12-.3.21-.43a1.55,1.55,0,0,0-.31-1.87,4.54,4.54,0,0,0-1.77-1,.76.76,0,0,0-.46-.07.75.75,0,0,0-.34.27,26,26,0,0,1-2.1,2.43c-1.34,1.24-3.27,1.21-4.65,2.29a2,2,0,0,1-1.08.53,1.56,1.56,0,0,0,1.11.14c.32-.08.66-.27,1-.16.1,0,.19.09.29.12s.46-.08.7-.1c1,0-1.69,3.93-1.92,4.4a35.26,35.26,0,0,0-2,5,11.37,11.37,0,0,0-.65,3.35,6.86,6.86,0,0,0,2.33,5.15,3.47,3.47,0,0,0,1.58.85c1.24.24,2.43-.55,3.4-1.37A28.21,28.21,0,0,0,97.94,32c.11-.15.2-.41,0-.49a23.3,23.3,0,0,0,2.54-3.67,11.68,11.68,0,0,0,1.26-4.43A8.39,8.39,0,0,0,101.75,21.87Zm-1.25.6a7.87,7.87,0,0,1-.75,3.32,19.64,19.64,0,0,1-3.82,5,.73.73,0,0,1,.2-.62h-.4l-1,1.23A15.09,15.09,0,0,0,93.05,33a13,13,0,0,1-3.69,2.46.38.38,0,0,1-.34,0,.37.37,0,0,1-.13-.28,7,7,0,0,1,0-2.13,12,12,0,0,1,.75-2.57,40.71,40.71,0,0,1,4.61-8.64c.66-.94,1.74-3.05,2.9-3.4s2.32.88,2.52,1.85l.12-.61A5.46,5.46,0,0,1,100.5,22.47Z"/><path class="cls-2" d="M121.48,23.34a.09.09,0,0,1,0,.07.31.31,0,0,1,.13,0A.12.12,0,0,1,121.48,23.34Z"/><path class="cls-2" d="M129.92,7.62a2.18,2.18,0,0,0-1.26-.78l0-.19-1-.38c-1.37-.5-1.93,1.72-2.51,2.64q-1.16,1.86-2.28,3.74-2.24,3.77-4.28,7.64A11,11,0,0,0,114,16.2c-2.26-1.09-5.15,3.17-6.28,4.64A42.69,42.69,0,0,0,103.93,27a17.1,17.1,0,0,0-2.4,7.43,3.61,3.61,0,0,0,1.21,3.14A4.35,4.35,0,0,0,104,38a1.56,1.56,0,0,0,.71.09,1.28,1.28,0,0,0,.52-.27,7.72,7.72,0,0,0,1.6-1.94,64.7,64.7,0,0,1,9.87-11.62,2.13,2.13,0,0,1-.2,1.18,35.31,35.31,0,0,0-2.17,10.78,11.09,11.09,0,0,0,.27,3.45c.14.5,2.47,4.1,2.85,2.89a.61.61,0,0,0-.07-.41,7.65,7.65,0,0,1-.43-3.48l-.49-.17a.39.39,0,0,0,.48-.27,1.41,1.41,0,0,0,0-.61,3.7,3.7,0,0,1,.23-1.67l-.34-.14.45-.29c-.34-.32-.22-.88,0-1.32s.37-1,.12-1.34l.41-.24c.06,0,.16-1.62.23-1.83.17-.56.5-1,.68-1.61a21.29,21.29,0,0,1,1.8-4.15L122,22c.13-.28.4-.61.67-.46l-.27-.61a.27.27,0,0,1,.39.26q1.48-2.55,3.19-5l1-1.37A22.28,22.28,0,0,1,129,12a12.18,12.18,0,0,0,1.09-1.5A2.72,2.72,0,0,0,129.92,7.62ZM118,21.42c-5.64,4.24-10,9.93-14.28,15.53-.48-.36-.31-1.1-.09-1.65A41.77,41.77,0,0,1,111.25,23a11.94,11.94,0,0,1,2.46-2.22A16.68,16.68,0,0,1,115.2,20c.19-.09.79-.63.88-.65.74-.19,1.4.91,2,1.51a.4.4,0,0,1,.15.29C118.19,21.25,118.09,21.34,118,21.42Z"/><path class="cls-2" d="M138.23,16.58c.59,1.22-.23,3-.78,4.13l-1.76,3.65-1.43,3c-.3.63-1.18,1.77-1,2.49s-.91-.22-1-.38a2.7,2.7,0,0,1-.32-1.8c.21-2.25,2.07-4.44,2-6.65a.93.93,0,0,0-.35.21,22.33,22.33,0,0,0-2.23,2.43,24.89,24.89,0,0,0-2.84,3.58c-.74,1.09-1.15,1.66-.12,2.74a17.67,17.67,0,0,0,1.85,1.67C132,33,134,34,135.83,35.44c2.66,2.08-.35,2.52-2.14,2.62a30,30,0,0,1-6.34-.09c-1.87-.29-5.63-1.38-6.32-3.4,1.36.86,3.58.74,5.13.74a25.17,25.17,0,0,0,5.63-.63,27,27,0,0,1-4.12-3.5c-1.27-1.41-2.86-3.8-2.32-5.8a5.43,5.43,0,0,1,1.17-1.93q2.2-2.69,4.46-5.33c.84-1,2.52-3.72,4.13-3.27.31.09.6.25.9.37a13.29,13.29,0,0,1,1.29.44A2,2,0,0,1,138.23,16.58Z"/><path class="cls-2" d="M141.85,33.72l-.11.57c-.07.39-.2.85-.58,1,.51.37.32,1.16,0,1.72s.1,2.2-.17,2.45c-.54.51-1.68-.73-1.89-1.13a4.68,4.68,0,0,1-.43-2.24,24.53,24.53,0,0,1,.48-5.07,54.25,54.25,0,0,1,2.52-8.2c.52-1.34,1.07-2.67,1.63-4,.17-.41,1-3.15,1.44-3.17a3.37,3.37,0,0,1,1.81.36,2.57,2.57,0,0,1,.76.66l.59.79.13.28a.5.5,0,0,1,0,.32,6,6,0,0,0-.1.74c-.1,1.21-1.06,2.35-1.66,3.36a37,37,0,0,0-4.5,11.58Z"/><path class="cls-2" d="M168.58,24.13a20.39,20.39,0,0,1-.92,4.45,23.3,23.3,0,0,1-2,6.12,17.6,17.6,0,0,0-1.16,2.74c-.23.66-.43,2.09-1.18,2.37a1.11,1.11,0,0,1-.47,1l.41.12a6,6,0,0,0-.67.85,16.83,16.83,0,0,0-1.73,2.87c-.36.84-.66,1.81-1.46,2.25a.67.67,0,0,0,.4.39l-1.89,2c-1.25,1.32-1.7,2.9-3.25,4A8,8,0,0,1,150.08,55a8.19,8.19,0,0,1-1.79-.29A9.87,9.87,0,0,1,144,52.49a6.19,6.19,0,0,1-2-4.37q1.09,1.62,2.28,3.16a2.78,2.78,0,0,0,.89.85,2.35,2.35,0,0,0,1.23.17,10.63,10.63,0,0,0,6.73-3.81,1.36,1.36,0,0,0,.15-.21l.4-.44c2.9-3.12,5-7.47,6.65-11.35A53.55,53.55,0,0,0,164,23.55c0-.27.05-.6-.17-.74a127,127,0,0,0-10.11,12,12.37,12.37,0,0,1-2.71,3,3.94,3.94,0,0,1-3.81.55,3.82,3.82,0,0,1-1.92-3.68,9.12,9.12,0,0,1,1.51-4.09c1.32-2.22,2.44-4.51,3.87-6.67q.86-1.31,1.78-2.57c1.37-1.89,4.33-6.15,7.17-5.48a3.18,3.18,0,0,1,.94.46c.63.4,4.51,3.57,2.9,4.33-1.37.64-.57-2.21-2.5-.95a30.06,30.06,0,0,0-7.67,7.54,43.25,43.25,0,0,0-2.92,4.62,17.82,17.82,0,0,0-2.12,4.53c1.09.39,2.08-.76,2.66-1.52A142.45,142.45,0,0,1,164,20.41a.44.44,0,0,0,.1-.16.54.54,0,0,1,.1-.2,2.09,2.09,0,0,0,.11-.3c0-.11.08-.16.15-.16,2.27-.51,4,1.93,4.12,3.91C168.59,23.71,168.59,23.92,168.58,24.13Z"/><path class="cls-2" d="M153.78,7.9a2.66,2.66,0,0,0-.63-1.23,1.23,1.23,0,0,0-1.31-.41.5.5,0,0,1,.15-.33,2.09,2.09,0,0,0-.82,0,1.37,1.37,0,0,0-.56.64c-1.05,2-2.59,4.08-2.8,6.36A1.75,1.75,0,0,0,148,14c.8,1.35,2.53-1.19,3-1.69l.44-.46C152.44,10.7,154.14,9.63,153.78,7.9Z"/><path class="cls-2" d="M190.46,16.29v0a1.33,1.33,0,0,1-.18.5,37.28,37.28,0,0,1-2.7,4.08c-.26.38-2.16,4.17-2.2,4.17H185a.76.76,0,0,1-.5,1.24l.19.34-1,3.11c-.11.33-.36.74-.69.64l.34.29-.32.49c-.28.28-.31,1.59-.39,2l-.47,2.41c-.27,1.42-.8,2.64-.54,4.13.09.55.4,1.19,1,1.21-.36,0-.55.32-.95.21a3.45,3.45,0,0,1-1.41-1.11c-1.48-1.75-1.18-4.24-.71-6.32a22.56,22.56,0,0,1,1-5.32l.13.46c.16,0,.24-.2.21-.35s-.14-.28-.18-.43a1.27,1.27,0,0,1,.08-.77,76.55,76.55,0,0,1,3.86-9.48c-.18.38-1.13.85-1.47,1.15s-.83.78-1.22,1.19a32.33,32.33,0,0,0-2.55,3.09,54.51,54.51,0,0,0-4.17,6.88,26.48,26.48,0,0,1-3.15,5.15,1.89,1.89,0,0,1-.66.55,1.47,1.47,0,0,1-1.17-.08,3.27,3.27,0,0,1-1.71-2.4,7.71,7.71,0,0,1,.17-3,34.92,34.92,0,0,1,2.77-7.77c.6-1.25,1.24-2.48,1.9-3.7.51-.95,1-2.89,2.38-2.59a6.25,6.25,0,0,0,1.15.27,1,1,0,0,0-.72.38,3.15,3.15,0,0,1,1.93.46c.82.61.59,1.49.14,2.23-2,3.29-4.64,6.33-5.61,10.06,1.7-2.55,3.53-5,5.43-7.41l-1.74,3.27q2.44-2.8,5.1-5.4a31.63,31.63,0,0,0,4.56-4.9c.49-.73.92-1.54,1.88-1.37a4.63,4.63,0,0,1,2.06,1.48A1.45,1.45,0,0,1,190.46,16.29Z"/></g></g></svg>